# xmcd
#
# Track frame offsets:
#	150
#	9910
#	29243
#	44749
#	60767
#	80713
#	93984
#	112948
#	136450
#	154488
#	166439
#	180737
#	201104
#	217682
#	235849
#	250031
#	267191
#
# Disc length: 3697 seconds
#
# Revision: 0
# Processed by: cddbd v1.5.2PL0 Copyright (c) Steve Scherf et al.
# Submitted via: EasyCDDAExtractor 11.0.3.1
#
DISCID=e30e6f11
DTITLE=Lee Kernaghan - Spirit Of The Bush
DYEAR=2007
DGENRE=Country
TTITLE0=Sassafras Gap
TTITLE1=I Was Only Nineteen (A Walk In The Light Green)
TTITLE2=Three Rivers Hotel
TTITLE3=Spirit Of The Bush
TTITLE4=Diamantina Drover
TTITLE5=Bare Essentials
TTITLE6=The Way It Is
TTITLE7=Spirit Of The High Country
TTITLE8=Southern Son
TTITLE9=Shelter
TTITLE10=When Country Comes
TTITLE11=A Bushman Can't Survive
TTITLE12=Mate
TTITLE13=Tenterfield Saddler
TTITLE14=Cunnamulla Feller
TTITLE15=Hat Town
TTITLE16=Spirit Of The Bush Reprise
EXTD=
EXTT0=
EXTT1=
EXTT2=
EXTT3=
EXTT4=
EXTT5=
EXTT6=
EXTT7=
EXTT8=
EXTT9=
EXTT10=
EXTT11=
EXTT12=
EXTT13=
EXTT14=
EXTT15=
EXTT16=
PLAYORDER=
